<mxfile host="app.diagrams.net" modified="2024-02-24T14:27:56.377Z" agent="Mozilla/5.0 (Windows NT 10.0; Win64; x64) AppleWebKit/537.36 (KHTML, like Gecko) Chrome/121.0.0.0 Safari/537.36" version="23.1.6" etag="3wpiUzLOGrAv_hvlBI6r" type="github">
  <diagram name="Страница — 1" id="cFD7nJ1qUMb300Bxxjo0">
    <mxGraphModel>
      <root>
        <mxCell id="0" />
        <mxCell id="1" parent="0" />
      </root>
    </mxGraphModel>
  </diagram>
</mxfile>
